<svg width="1016" height="1016" viewBox="0 0 1016 1016" fill="none" xmlns="http://www.w3.org/2000/svg">
<path d="M506.308 479.26V1015.19C506.308 1015.19 727.78 859.65 883.317 814.003C883.317 814.003 890.08 482.641 986.446 316.96L506.308 479.26" fill="#076170"/>
<path d="M644.942 934.038C644.942 934.038 653.395 458.972 670.301 435.303C687.208 409.944 832.601 384.585 832.601 384.585C832.601 384.585 773.43 829.219 786.955 857.96C788.645 856.269 727.783 881.628 644.942 934.038Z" fill="#B3690E"/>
<path d="M506.31 1015.19C506.31 1015.19 350.773 883.319 109.013 814.003C109.013 814.003 127.61 541.813 39.6976 333.866L506.31 479.26V1015.19Z" fill="#3BAACF"/>
<path d="M207.069 857.959C207.069 857.959 349.082 915.441 359.226 934.038C369.369 952.634 369.369 455.591 369.369 455.591C369.369 455.591 174.948 401.491 158.041 401.491C158.041 401.491 217.213 602.675 207.069 857.959" fill="#E9C243"/>
<path opacity="0.3" d="M506.308 479.26V568.863L940.799 420.088C952.633 382.894 967.849 347.391 984.755 316.96L506.308 479.26" fill="black"/>
<path opacity="0.3" d="M70.1274 426.85C61.6742 394.728 51.5305 364.297 38.0055 333.866L504.618 479.26V568.863L70.1274 426.85Z" fill="black"/>
<path d="M0.8125 286.528L482.641 393.038L1015.19 264.55L492.784 235.81L0.8125 286.528Z" fill="#4FC7E8"/>
<path d="M0.8125 286.528L39.6969 393.038L482.641 518.144V393.038L0.8125 286.528Z" fill="#3BAACF"/>
<path d="M482.641 518.144C482.641 518.144 885.009 369.369 984.756 362.606C984.756 362.606 991.519 303.435 1015.19 266.241L482.641 393.038V518.144Z" fill="#076170"/>
<path d="M144.516 318.65L242.572 411.635L350.772 362.607L508 315.269L704.112 338.938L807.241 359.225L890.081 294.982L144.516 318.65Z" fill="#F0AE11"/>
<path d="M350.772 362.606L508 315.269L704.112 338.938L890.081 294.981L497.856 257.788L144.516 318.65L350.772 362.606Z" fill="#F0AE11"/>
<path d="M144.516 318.65V436.994L342.319 491.094L350.772 362.606L144.516 318.65Z" fill="#F8D048"/>
<path d="M704.114 338.938L707.495 452.21L876.558 401.491L890.083 294.982L704.114 338.938Z" fill="#C47116"/>
<path d="M597.603 259.478C597.603 259.478 597.603 141.134 712.565 38.0062C712.565 38.0062 643.25 63.3656 609.437 56.6031C568.862 49.8406 555.337 0.8125 555.337 0.8125C555.337 0.8125 457.281 213.831 486.022 240.881C514.762 269.622 597.603 259.478 597.603 259.478Z" fill="#EA9F07"/>
<path d="M447.137 328.794C447.137 328.794 381.202 193.544 240.88 122.538C240.88 122.538 350.771 112.394 376.131 98.8691C408.252 83.6535 426.849 41.3879 426.849 41.3879C426.849 41.3879 548.574 254.407 538.431 286.529C528.287 318.65 447.137 328.794 447.137 328.794Z" fill="#F8D048"/>
<path d="M518.143 313.578C518.143 313.578 415.015 354.153 283.147 354.153C5.88411 352.462 -33.0003 152.968 240.881 171.565C465.734 188.471 518.143 313.578 518.143 313.578" fill="#EA9F07"/>
<path d="M499.548 311.888C499.548 311.888 621.274 322.032 734.545 293.291C971.233 232.428 883.32 53.2223 660.158 129.3C477.57 191.854 499.548 311.888 499.548 311.888Z" fill="#F0AE11"/>
<path d="M518.145 313.578C518.145 313.578 453.901 338.938 371.061 338.938C198.617 338.938 173.258 213.831 344.011 225.666C484.333 235.809 518.145 313.578 518.145 313.578" fill="#824000"/>
<path d="M518.146 313.578C518.146 313.578 602.677 320.341 682.137 300.053C847.818 257.787 785.265 132.681 631.418 185.091C502.93 229.047 518.146 313.578 518.146 313.578" fill="#824000"/>
</svg>
